# xmcd
#
# Track frame offsets: 
#        150
#        20427
#        34804
#        51725
#        76087
#        90440
#        110217
#        127208
#        143515
#        159517
#        177255
#        192892
#
# Disc length: 2864 seconds
#
# Revision: 0
# Processed by: cddbd v1.5.2PL0 Copyright (c) Steve Scherf et al.
# Submitted via: ExactAudioCopyFreeDBPlugin 1.0
#
DISCID=a00b2e0c
DTITLE=Jeannie Reynolds - One Wish
DYEAR=1977
DGENRE=R&B 70's
TTITLE0=Come My Way
TTITLE1=Be Someone
TTITLE2=I Know I'll Always Be In Love With You
TTITLE3=I'm Hooked On You
TTITLE4=Sexy Man
TTITLE5=I Don't Want To Be Second Best
TTITLE6=Don't Make A Fool Of Me
TTITLE7=Guide Me Well
TTITLE8=The Phone's Been Jumping All Day
TTITLE9=Unwanted Company
TTITLE10=Lay Some Lovin' On Me
TTITLE11=Love Don't Come Easy For Me
EXTD=
EXTT0=
EXTT1=
EXTT2=
EXTT3=
EXTT4=
EXTT5=
EXTT6=
EXTT7=
EXTT8=
EXTT9=
EXTT10=
EXTT11=
PLAYORDER=
